<?xml version="1.0" encoding="UTF-8"?>
<svg width="496px" height="496px" viewBox="0 0 496 496" version="1.1" xmlns="http://www.w3.org/2000/svg" xmlns:xlink="http://www.w3.org/1999/xlink">
    <!-- Generator: Sketch 64 (93537) - https://sketch.com -->
    <title>Shape</title>
    <desc>Created with Sketch.</desc>
    <g id="Page-1" stroke="none" stroke-width="1" fill="none" fill-rule="evenodd">
        <g id="check-circle-solid" fill="#DE4B4B" fill-rule="nonzero">
            <path d="M496,248 C496,384.967 384.967,496 248,496 C111.033,496 0,384.967 0,248 C0,111.033 111.033,0 248,0 C384.967,0 496,111.033 496,248 Z M219.314,379.314 L403.314,195.314 C409.562,189.066 409.562,178.935 403.314,172.687 L380.687,150.06 C374.439,143.811 364.308,143.811 358.059,150.06 L208,300.118 L137.941,230.059 C131.693,223.811 121.562,223.811 115.313,230.059 L92.686,252.686 C86.438,258.934 86.438,269.065 92.686,275.313 L196.686,379.313 C202.935,385.562 213.065,385.562 219.314,379.314 L219.314,379.314 Z" id="Shape"></path>
        </g>
    </g>
</svg>